<svg width="27" height="27" viewBox="0 0 27 27" fill="none" xmlns="http://www.w3.org/2000/svg">
<path d="M24.954 6.5842L13.1012 18.4577C11.9209 19.6401 8.41723 20.1877 7.63451 19.4036C6.85178 18.6195 7.38602 15.1097 8.56633 13.9273L20.4315 2.04135C20.7241 1.72156 21.0783 1.4645 21.4729 1.28565C21.8674 1.1068 22.2941 1.00985 22.727 1.00071C23.1599 0.991587 23.5903 1.07042 23.992 1.23248C24.3936 1.39454 24.7584 1.63649 25.0642 1.94366C25.3699 2.25083 25.6105 2.61687 25.7711 3.0197C25.9318 3.42254 26.0094 3.8538 25.9991 4.28748C25.9888 4.72116 25.8908 5.1483 25.7112 5.54303C25.5316 5.93775 25.274 6.29196 24.954 6.5842Z" stroke="black" stroke-width="2" stroke-linecap="round" stroke-linejoin="round"/>
<path d="M12.1818 3.59711H5.96971C4.65165 3.59711 3.38767 4.12161 2.45566 5.05525C1.52367 5.98889 1 7.25517 1 8.57553V21.0216C1 22.342 1.52367 23.6083 2.45566 24.5418C3.38767 25.4755 4.65165 26 5.96971 26H19.6364C22.3822 26 23.3637 23.7597 23.3637 21.0216V14.7986" stroke="black" stroke-width="2" stroke-linecap="round" stroke-linejoin="round"/>
</svg>
