<svg width="25" height="35" viewBox="0 0 25 35" fill="none" xmlns="http://www.w3.org/2000/svg">
<g clip-path="url(#clip0_142_75)">
<path d="M21.2579 2.89264H9.09855C7.88346 2.89511 6.71885 3.37891 5.85963 4.23811C5.00046 5.09731 4.51665 6.26192 4.51417 7.47701V24.502C4.51286 25.0151 4.65467 25.5184 4.92367 25.9553C5.19269 26.3922 5.57824 26.7455 6.037 26.9754C6.49572 27.2052 7.00947 27.3026 7.5205 27.2565C8.03153 27.2104 8.51955 27.0227 8.9298 26.7145L14.6485 22.4301C14.8024 22.316 14.989 22.2544 15.1806 22.2544C15.3722 22.2544 15.5587 22.316 15.7126 22.4301L21.4267 26.7098C21.8365 27.0182 22.3241 27.2061 22.8349 27.2525C23.3456 27.299 23.8592 27.2021 24.3179 26.9727C24.7766 26.7434 25.1623 26.3907 25.4315 25.9542C25.7008 25.5177 25.8431 25.0149 25.8423 24.502V7.47701C25.8398 6.26192 25.356 5.09731 24.4968 4.23811C23.6376 3.37891 22.473 2.89511 21.2579 2.89264Z" fill="#FFC800"/>
</g>
<defs>
<clipPath id="clip0_142_75">
<rect width="25" height="35" fill="white"/>
</clipPath>
</defs>
</svg>
