<svg width="40" height="40" viewBox="0 0 40 40" fill="none" xmlns="http://www.w3.org/2000/svg">
<path fill-rule="evenodd" clip-rule="evenodd" d="M16.5114 6.66649C16.563 6.66659 16.6147 6.66667 16.6665 6.66667C16.7183 6.66667 16.77 6.66659 16.8217 6.66649C17.4362 6.66547 18.0402 6.66447 18.5782 6.80864C20.0162 7.19392 21.1392 8.31704 21.5245 9.75492C21.6687 10.293 21.6677 10.897 21.6667 11.5115C21.6667 11.5632 21.6665 11.6149 21.6665 11.6667H34.9998C35.9203 11.6667 36.6665 12.4129 36.6665 13.3333C36.6665 14.2538 35.9203 15 34.9998 15H21.6665C21.6665 15.0518 21.6667 15.1035 21.6667 15.1551C21.6677 15.7697 21.6687 16.3737 21.5245 16.9118C21.1392 18.3497 20.0162 19.4728 18.5782 19.858C18.0402 20.0022 17.4362 20.0012 16.8217 20.0002C16.77 20.0002 16.7183 20 16.6665 20C16.6147 20 16.563 20.0002 16.5114 20.0002C15.8968 20.0012 15.2928 20.0022 14.7548 19.858C13.3169 19.4728 12.1938 18.3497 11.8085 16.9118C11.6643 16.3737 11.6653 15.7697 11.6663 15.1551C11.6664 15.1035 11.6665 15.0518 11.6665 15H8.33317C7.4127 15 6.6665 14.2538 6.6665 13.3333C6.6665 12.4129 7.4127 11.6667 8.33317 11.6667H11.6665C11.6665 11.6149 11.6664 11.5632 11.6663 11.5115C11.6653 10.897 11.6643 10.293 11.8085 9.75492C12.1938 8.31704 13.3169 7.19392 14.7548 6.80864C15.2928 6.66447 15.8968 6.66547 16.5114 6.66649ZM15.8309 10.0089C15.6531 10.017 15.6113 10.0301 15.6175 10.0284C15.3299 10.1055 15.1053 10.3301 15.0282 10.6177C15.0268 10.6235 15.0159 10.6747 15.0088 10.831C15.0002 11.0177 14.9998 11.2641 14.9998 11.6667V15C14.9998 15.4026 15.0002 15.6489 15.0088 15.8357C15.0169 16.0134 15.0299 16.0552 15.0282 16.049C15.1053 16.3366 15.3299 16.5612 15.6175 16.6383C15.6113 16.6366 15.6531 16.6496 15.8309 16.6578C16.0176 16.6663 16.2639 16.6667 16.6665 16.6667C17.0692 16.6667 17.3155 16.6663 17.5022 16.6578C17.6798 16.6496 17.7217 16.6366 17.7155 16.6383C18.0032 16.5612 18.2277 16.3366 18.3048 16.049C18.3032 16.0552 18.3162 16.0134 18.3242 15.8357C18.3328 15.6489 18.3332 15.4026 18.3332 15V11.6667C18.3332 11.2641 18.3328 11.0177 18.3242 10.831C18.3162 10.6533 18.3032 10.6114 18.3048 10.6177M15.8309 10.0089C16.0176 10.0004 16.2639 10 16.6665 10L15.8309 10.0089ZM16.6665 10C17.0692 10 17.3155 10.0004 17.5022 10.0089L16.6665 10ZM17.5022 10.0089C17.6585 10.016 17.7097 10.027 17.7155 10.0284L17.5022 10.0089ZM26.5113 19.9998C26.563 20 26.6147 20 26.6665 20C26.7183 20 26.77 20 26.8217 19.9998C27.4362 19.9988 28.0402 19.9978 28.5782 20.142C30.0162 20.5273 31.1392 21.6503 31.5245 23.0883C31.6687 23.6263 31.6677 24.2303 31.6667 24.8448C31.6667 24.8965 31.6665 24.9482 31.6665 25H34.9998C35.9203 25 36.6665 25.7462 36.6665 26.6667C36.6665 27.5872 35.9203 28.3333 34.9998 28.3333H31.6665C31.6665 28.3852 31.6667 28.4368 31.6667 28.4885C31.6677 29.103 31.6687 29.707 31.5245 30.2452C31.1392 31.683 30.0162 32.8062 28.5782 33.1913C28.0402 33.3355 27.4362 33.3345 26.8217 33.3335C26.77 33.3335 26.7183 33.3333 26.6665 33.3333C26.6147 33.3333 26.563 33.3335 26.5113 33.3335C25.8968 33.3345 25.2928 33.3355 24.7548 33.1913C23.3168 32.8062 22.1938 31.683 21.8085 30.2452C21.6643 29.707 21.6653 29.103 21.6663 28.4885C21.6663 28.4368 21.6665 28.3852 21.6665 28.3333H8.33317C7.4127 28.3333 6.6665 27.5872 6.6665 26.6667C6.6665 25.7462 7.4127 25 8.33317 25H21.6665C21.6665 24.9483 21.6663 24.8965 21.6663 24.8448C21.6653 24.2303 21.6643 23.6263 21.8085 23.0883C22.1938 21.6503 23.3168 20.5273 24.7548 20.142C25.2928 19.9978 25.8968 19.9988 26.5113 19.9998ZM25.8308 23.3423C25.6532 23.3503 25.6113 23.3633 25.6175 23.3617C25.3298 23.4388 25.1053 23.6635 25.0282 23.951C25.0298 23.9448 25.0168 23.9867 25.0088 24.1643C25.0002 24.351 24.9998 24.5975 24.9998 25V28.3333C24.9998 28.736 25.0002 28.9823 25.0088 29.169C25.0168 29.3468 25.0298 29.3887 25.0282 29.3823C25.1053 29.67 25.3298 29.8945 25.6175 29.9717C25.6113 29.97 25.6532 29.983 25.8308 29.9912C26.0175 29.9997 26.2638 30 26.6665 30C27.0692 30 27.3155 29.9997 27.5022 29.9912C27.6798 29.983 27.7217 29.97 27.7155 29.9717C28.0032 29.8945 28.2277 29.67 28.3048 29.3823C28.3032 29.3887 28.3162 29.3468 28.3242 29.169C28.3328 28.9823 28.3332 28.736 28.3332 28.3333V25C28.3332 24.5975 28.3328 24.351 28.3242 24.1643C28.3162 23.9867 28.3032 23.9448 28.3048 23.951C28.2277 23.6635 28.0032 23.4388 27.7155 23.3617C27.7217 23.3633 27.6798 23.3503 27.5022 23.3423C27.3155 23.3337 27.0692 23.3333 26.6665 23.3333C26.2638 23.3333 26.0175 23.3337 25.8308 23.3423Z" fill="#0F1729"/>
<path d="M15.8309 10.0089C15.6531 10.017 15.6113 10.0301 15.6175 10.0284C15.3299 10.1055 15.1053 10.3301 15.0282 10.6177C15.0268 10.6235 15.0159 10.6747 15.0088 10.831C15.0002 11.0177 14.9998 11.2641 14.9998 11.6667V15C14.9998 15.4026 15.0002 15.6489 15.0088 15.8357C15.0169 16.0134 15.0299 16.0552 15.0282 16.049C15.1053 16.3366 15.3299 16.5612 15.6175 16.6383C15.6113 16.6366 15.6531 16.6496 15.8309 16.6578C16.0176 16.6663 16.2639 16.6667 16.6665 16.6667C17.0692 16.6667 17.3155 16.6663 17.5022 16.6578C17.6798 16.6496 17.7217 16.6366 17.7155 16.6383C18.0032 16.5612 18.2277 16.3366 18.3048 16.049C18.3032 16.0552 18.3162 16.0134 18.3242 15.8357C18.3328 15.6489 18.3332 15.4026 18.3332 15V11.6667C18.3332 11.2641 18.3328 11.0177 18.3242 10.831C18.3162 10.6533 18.3032 10.6114 18.3048 10.6177M15.8309 10.0089C16.0176 10.0004 16.2639 10 16.6665 10M15.8309 10.0089L16.6665 10M16.6665 10C17.0692 10 17.3155 10.0004 17.5022 10.0089M16.6665 10L17.5022 10.0089M17.5022 10.0089C17.6585 10.016 17.7097 10.027 17.7155 10.0284L17.5022 10.0089ZM16.5114 6.66649C16.563 6.66659 16.6147 6.66667 16.6665 6.66667C16.7183 6.66667 16.77 6.66659 16.8217 6.66649C17.4362 6.66547 18.0402 6.66447 18.5782 6.80864C20.0162 7.19392 21.1392 8.31704 21.5245 9.75492C21.6687 10.293 21.6677 10.897 21.6667 11.5115C21.6667 11.5632 21.6665 11.6149 21.6665 11.6667H34.9998C35.9203 11.6667 36.6665 12.4129 36.6665 13.3333C36.6665 14.2538 35.9203 15 34.9998 15H21.6665C21.6665 15.0518 21.6667 15.1035 21.6667 15.1551C21.6677 15.7697 21.6687 16.3737 21.5245 16.9118C21.1392 18.3497 20.0162 19.4728 18.5782 19.858C18.0402 20.0022 17.4362 20.0012 16.8217 20.0002C16.77 20.0002 16.7183 20 16.6665 20C16.6147 20 16.563 20.0002 16.5114 20.0002C15.8968 20.0012 15.2928 20.0022 14.7548 19.858C13.3169 19.4728 12.1938 18.3497 11.8085 16.9118C11.6643 16.3737 11.6653 15.7697 11.6663 15.1551C11.6664 15.1035 11.6665 15.0518 11.6665 15H8.33317C7.4127 15 6.6665 14.2538 6.6665 13.3333C6.6665 12.4129 7.4127 11.6667 8.33317 11.6667H11.6665C11.6665 11.6149 11.6664 11.5632 11.6663 11.5115C11.6653 10.897 11.6643 10.293 11.8085 9.75492C12.1938 8.31704 13.3169 7.19392 14.7548 6.80864C15.2928 6.66447 15.8968 6.66547 16.5114 6.66649ZM26.5113 19.9998C26.563 20 26.6147 20 26.6665 20C26.7183 20 26.77 20 26.8217 19.9998C27.4362 19.9988 28.0402 19.9978 28.5782 20.142C30.0162 20.5273 31.1392 21.6503 31.5245 23.0883C31.6687 23.6263 31.6677 24.2303 31.6667 24.8448C31.6667 24.8965 31.6665 24.9482 31.6665 25H34.9998C35.9203 25 36.6665 25.7462 36.6665 26.6667C36.6665 27.5872 35.9203 28.3333 34.9998 28.3333H31.6665C31.6665 28.3852 31.6667 28.4368 31.6667 28.4885C31.6677 29.103 31.6687 29.707 31.5245 30.2452C31.1392 31.683 30.0162 32.8062 28.5782 33.1913C28.0402 33.3355 27.4362 33.3345 26.8217 33.3335C26.77 33.3335 26.7183 33.3333 26.6665 33.3333C26.6147 33.3333 26.563 33.3335 26.5113 33.3335C25.8968 33.3345 25.2928 33.3355 24.7548 33.1913C23.3168 32.8062 22.1938 31.683 21.8085 30.2452C21.6643 29.707 21.6653 29.103 21.6663 28.4885C21.6663 28.4368 21.6665 28.3852 21.6665 28.3333H8.33317C7.4127 28.3333 6.6665 27.5872 6.6665 26.6667C6.6665 25.7462 7.4127 25 8.33317 25H21.6665C21.6665 24.9483 21.6663 24.8965 21.6663 24.8448C21.6653 24.2303 21.6643 23.6263 21.8085 23.0883C22.1938 21.6503 23.3168 20.5273 24.7548 20.142C25.2928 19.9978 25.8968 19.9988 26.5113 19.9998ZM25.8308 23.3423C25.6532 23.3503 25.6113 23.3633 25.6175 23.3617C25.3298 23.4388 25.1053 23.6635 25.0282 23.951C25.0298 23.9448 25.0168 23.9867 25.0088 24.1643C25.0002 24.351 24.9998 24.5975 24.9998 25V28.3333C24.9998 28.736 25.0002 28.9823 25.0088 29.169C25.0168 29.3468 25.0298 29.3887 25.0282 29.3823C25.1053 29.67 25.3298 29.8945 25.6175 29.9717C25.6113 29.97 25.6532 29.983 25.8308 29.9912C26.0175 29.9997 26.2638 30 26.6665 30C27.0692 30 27.3155 29.9997 27.5022 29.9912C27.6798 29.983 27.7217 29.97 27.7155 29.9717C28.0032 29.8945 28.2277 29.67 28.3048 29.3823C28.3032 29.3887 28.3162 29.3468 28.3242 29.169C28.3328 28.9823 28.3332 28.736 28.3332 28.3333V25C28.3332 24.5975 28.3328 24.351 28.3242 24.1643C28.3162 23.9867 28.3032 23.9448 28.3048 23.951C28.2277 23.6635 28.0032 23.4388 27.7155 23.3617C27.7217 23.3633 27.6798 23.3503 27.5022 23.3423C27.3155 23.3337 27.0692 23.3333 26.6665 23.3333C26.2638 23.3333 26.0175 23.3337 25.8308 23.3423Z" stroke="#F0F2F5" stroke-width="6" stroke-linecap="round" stroke-linejoin="round"/>
<path fill-rule="evenodd" clip-rule="evenodd" d="M16.5114 6.66649C16.563 6.66659 16.6147 6.66667 16.6665 6.66667C16.7183 6.66667 16.77 6.66659 16.8217 6.66649C17.4362 6.66547 18.0402 6.66447 18.5782 6.80864C20.0162 7.19392 21.1392 8.31704 21.5245 9.75492C21.6687 10.293 21.6677 10.897 21.6667 11.5115C21.6667 11.5632 21.6665 11.6149 21.6665 11.6667H34.9998C35.9203 11.6667 36.6665 12.4129 36.6665 13.3333C36.6665 14.2538 35.9203 15 34.9998 15H21.6665C21.6665 15.0518 21.6667 15.1035 21.6667 15.1551C21.6677 15.7697 21.6687 16.3737 21.5245 16.9118C21.1392 18.3497 20.0162 19.4728 18.5782 19.858C18.0402 20.0022 17.4362 20.0012 16.8217 20.0002C16.77 20.0002 16.7183 20 16.6665 20C16.6147 20 16.563 20.0002 16.5114 20.0002C15.8968 20.0012 15.2928 20.0022 14.7548 19.858C13.3169 19.4728 12.1938 18.3497 11.8085 16.9118C11.6643 16.3737 11.6653 15.7697 11.6663 15.1551C11.6664 15.1035 11.6665 15.0518 11.6665 15H8.33317C7.4127 15 6.6665 14.2538 6.6665 13.3333C6.6665 12.4129 7.4127 11.6667 8.33317 11.6667H11.6665C11.6665 11.6149 11.6664 11.5632 11.6663 11.5115C11.6653 10.897 11.6643 10.293 11.8085 9.75492C12.1938 8.31704 13.3169 7.19392 14.7548 6.80864C15.2928 6.66447 15.8968 6.66547 16.5114 6.66649ZM15.8309 10.0089C15.6531 10.017 15.6113 10.0301 15.6175 10.0284C15.3299 10.1055 15.1053 10.3301 15.0282 10.6177C15.0268 10.6235 15.0159 10.6747 15.0088 10.831C15.0002 11.0177 14.9998 11.2641 14.9998 11.6667V15C14.9998 15.4026 15.0002 15.6489 15.0088 15.8357C15.0169 16.0134 15.0299 16.0552 15.0282 16.049C15.1053 16.3366 15.3299 16.5612 15.6175 16.6383C15.6113 16.6366 15.6531 16.6496 15.8309 16.6578C16.0176 16.6663 16.2639 16.6667 16.6665 16.6667C17.0692 16.6667 17.3155 16.6663 17.5022 16.6578C17.6798 16.6496 17.7217 16.6366 17.7155 16.6383C18.0032 16.5612 18.2277 16.3366 18.3048 16.049C18.3032 16.0552 18.3162 16.0134 18.3242 15.8357C18.3328 15.6489 18.3332 15.4026 18.3332 15V11.6667C18.3332 11.2641 18.3328 11.0177 18.3242 10.831C18.3162 10.6533 18.3032 10.6114 18.3048 10.6177M15.8309 10.0089C16.0176 10.0004 16.2639 10 16.6665 10L15.8309 10.0089ZM16.6665 10C17.0692 10 17.3155 10.0004 17.5022 10.0089L16.6665 10ZM17.5022 10.0089C17.6585 10.016 17.7097 10.027 17.7155 10.0284L17.5022 10.0089ZM26.5113 19.9998C26.563 20 26.6147 20 26.6665 20C26.7183 20 26.77 20 26.8217 19.9998C27.4362 19.9988 28.0402 19.9978 28.5782 20.142C30.0162 20.5273 31.1392 21.6503 31.5245 23.0883C31.6687 23.6263 31.6677 24.2303 31.6667 24.8448C31.6667 24.8965 31.6665 24.9482 31.6665 25H34.9998C35.9203 25 36.6665 25.7462 36.6665 26.6667C36.6665 27.5872 35.9203 28.3333 34.9998 28.3333H31.6665C31.6665 28.3852 31.6667 28.4368 31.6667 28.4885C31.6677 29.103 31.6687 29.707 31.5245 30.2452C31.1392 31.683 30.0162 32.8062 28.5782 33.1913C28.0402 33.3355 27.4362 33.3345 26.8217 33.3335C26.77 33.3335 26.7183 33.3333 26.6665 33.3333C26.6147 33.3333 26.563 33.3335 26.5113 33.3335C25.8968 33.3345 25.2928 33.3355 24.7548 33.1913C23.3168 32.8062 22.1938 31.683 21.8085 30.2452C21.6643 29.707 21.6653 29.103 21.6663 28.4885C21.6663 28.4368 21.6665 28.3852 21.6665 28.3333H8.33317C7.4127 28.3333 6.6665 27.5872 6.6665 26.6667C6.6665 25.7462 7.4127 25 8.33317 25H21.6665C21.6665 24.9483 21.6663 24.8965 21.6663 24.8448C21.6653 24.2303 21.6643 23.6263 21.8085 23.0883C22.1938 21.6503 23.3168 20.5273 24.7548 20.142C25.2928 19.9978 25.8968 19.9988 26.5113 19.9998ZM25.8308 23.3423C25.6532 23.3503 25.6113 23.3633 25.6175 23.3617C25.3298 23.4388 25.1053 23.6635 25.0282 23.951C25.0298 23.9448 25.0168 23.9867 25.0088 24.1643C25.0002 24.351 24.9998 24.5975 24.9998 25V28.3333C24.9998 28.736 25.0002 28.9823 25.0088 29.169C25.0168 29.3468 25.0298 29.3887 25.0282 29.3823C25.1053 29.67 25.3298 29.8945 25.6175 29.9717C25.6113 29.97 25.6532 29.983 25.8308 29.9912C26.0175 29.9997 26.2638 30 26.6665 30C27.0692 30 27.3155 29.9997 27.5022 29.9912C27.6798 29.983 27.7217 29.97 27.7155 29.9717C28.0032 29.8945 28.2277 29.67 28.3048 29.3823C28.3032 29.3887 28.3162 29.3468 28.3242 29.169C28.3328 28.9823 28.3332 28.736 28.3332 28.3333V25C28.3332 24.5975 28.3328 24.351 28.3242 24.1643C28.3162 23.9867 28.3032 23.9448 28.3048 23.951C28.2277 23.6635 28.0032 23.4388 27.7155 23.3617C27.7217 23.3633 27.6798 23.3503 27.5022 23.3423C27.3155 23.3337 27.0692 23.3333 26.6665 23.3333C26.2638 23.3333 26.0175 23.3337 25.8308 23.3423Z" fill="#0F1729"/>
</svg>
